<svg xmlns="http://www.w3.org/2000/svg" width="1200" height="675" viewBox="0 0 1200 675" role="img" aria-label="Puntos de Residuos - mapa de recoleccion">
  <defs>
    <linearGradient id="bg" x1="0" y1="0" x2="1" y2="1">
      <stop offset="0%" stop-color="#2a1519"/>
      <stop offset="55%" stop-color="#1f1014"/>
      <stop offset="100%" stop-color="#140a0d"/>
    </linearGradient>
    <linearGradient id="panel" x1="0" y1="0" x2="0" y2="1">
      <stop offset="0%" stop-color="#f8fafc"/>
      <stop offset="100%" stop-color="#eef2f7"/>
    </linearGradient>
    <linearGradient id="accent" x1="0" y1="0" x2="1" y2="0">
      <stop offset="0%" stop-color="#6B2D3B"/>
      <stop offset="100%" stop-color="#8B3A4A"/>
    </linearGradient>
    <linearGradient id="mapGrad" x1="0" y1="0" x2="1" y2="1">
      <stop offset="0%" stop-color="#dce7df"/>
      <stop offset="100%" stop-color="#c5d4cb"/>
    </linearGradient>
  </defs>

  <rect width="1200" height="675" fill="url(#bg)"/>
  <circle cx="1080" cy="80" r="220" fill="#6B2D3B" fill-opacity="0.22"/>
  <circle cx="90" cy="620" r="260" fill="#8B3A4A" fill-opacity="0.14"/>

  <rect x="102" y="86" width="1020" height="535" rx="22" fill="#000000" fill-opacity="0.28"/>
  <rect x="90" y="70" width="1020" height="535" rx="22" fill="url(#panel)"/>

  <rect x="90" y="70" width="1020" height="64" rx="22" fill="#6B2D3B"/>
  <rect x="90" y="110" width="1020" height="24" fill="#6B2D3B"/>
  <text x="130" y="112" font-family="Segoe UI, system-ui, sans-serif" font-size="20" font-weight="700" fill="#ffffff">Puntos de Residuos</text>
  <text x="380" y="112" font-family="Segoe UI, system-ui, sans-serif" font-size="14" fill="#f3d5db">HTML / CSS / JS</text>
  <rect x="900" y="90" width="170" height="32" rx="16" fill="#ffffff" fill-opacity="0.18"/>
  <text x="985" y="111" text-anchor="middle" font-family="Segoe UI, system-ui, sans-serif" font-size="12" font-weight="700" fill="#ffffff">Sin frameworks</text>

  <rect x="120" y="160" width="560" height="48" rx="14" fill="#ffffff" stroke="#d4a5ae"/>
  <circle cx="148" cy="184" r="9" fill="none" stroke="#8B3A4A" stroke-width="2.2"/>
  <line x1="155" y1="191" x2="163" y2="199" stroke="#8B3A4A" stroke-width="2.2" stroke-linecap="round"/>
  <text x="178" y="190" font-family="Segoe UI, system-ui, sans-serif" font-size="15" fill="#94a3b8">Buscar puntos cercanos...</text>
  <rect x="700" y="164" width="140" height="40" rx="12" fill="url(#accent)"/>
  <text x="770" y="189" text-anchor="middle" font-family="Segoe UI, system-ui, sans-serif" font-size="14" font-weight="700" fill="#ffffff">Localizar</text>
  <rect x="856" y="164" width="214" height="40" rx="12" fill="#ffffff" stroke="#c4a0a8"/>
  <text x="963" y="189" text-anchor="middle" font-family="Segoe UI, system-ui, sans-serif" font-size="13" font-weight="600" fill="#6B2D3B">Analytics</text>

  <rect x="120" y="228" width="620" height="330" rx="16" fill="url(#mapGrad)" stroke="#c5d0c8"/>
  <path d="M140 320 H720 M180 228 V538 M320 228 V538 M480 228 V538 M620 228 V538 M140 400 H720 M140 480 H720" stroke="#ffffff" stroke-opacity="0.55" stroke-width="3"/>
  <circle cx="280" cy="340" r="14" fill="#6B2D3B"/>
  <circle cx="280" cy="340" r="5" fill="#ffffff"/>
  <path d="M280 354 L280 372" stroke="#6B2D3B" stroke-width="3" stroke-linecap="round"/>
  <circle cx="470" cy="430" r="14" fill="#8B3A4A"/>
  <circle cx="470" cy="430" r="5" fill="#ffffff"/>
  <path d="M470 444 L470 462" stroke="#8B3A4A" stroke-width="3" stroke-linecap="round"/>
  <circle cx="610" cy="310" r="14" fill="#4E1F28"/>
  <circle cx="610" cy="310" r="5" fill="#ffffff"/>
  <path d="M610 324 L610 342" stroke="#4E1F28" stroke-width="3" stroke-linecap="round"/>
  <rect x="140" y="248" width="150" height="28" rx="8" fill="#ffffff" fill-opacity="0.9"/>
  <text x="215" y="267" text-anchor="middle" font-family="Segoe UI, system-ui, sans-serif" font-size="12" font-weight="700" fill="#6B2D3B">Geolocalizacion</text>

  <rect x="760" y="228" width="310" height="96" rx="14" fill="#ffffff" stroke="#e8d0d5"/>
  <text x="780" y="262" font-family="Segoe UI, system-ui, sans-serif" font-size="14" font-weight="700" fill="#1e293b">Puntos activos</text>
  <text x="780" y="294" font-family="Segoe UI, system-ui, sans-serif" font-size="28" font-weight="700" fill="#6B2D3B">24</text>

  <rect x="760" y="340" width="310" height="96" rx="14" fill="#ffffff" stroke="#e8d0d5"/>
  <text x="780" y="374" font-family="Segoe UI, system-ui, sans-serif" font-size="14" font-weight="700" fill="#1e293b">Recolecciones hoy</text>
  <text x="780" y="406" font-family="Segoe UI, system-ui, sans-serif" font-size="28" font-weight="700" fill="#6B2D3B">11</text>

  <rect x="760" y="452" width="310" height="106" rx="14" fill="#ffffff" stroke="#e8d0d5"/>
  <text x="780" y="486" font-family="Segoe UI, system-ui, sans-serif" font-size="14" font-weight="700" fill="#1e293b">Alertas</text>
  <text x="780" y="514" font-family="Segoe UI, system-ui, sans-serif" font-size="13" fill="#64748b">Contenedor Norte: 92%</text>
  <text x="780" y="536" font-family="Segoe UI, system-ui, sans-serif" font-size="13" fill="#64748b">Notificacion en tiempo real</text>
</svg>
