<svg xmlns="http://www.w3.org/2000/svg" xmlns:xlink="http://www.w3.org/1999/xlink" width="20" zoomAndPan="magnify" viewBox="0 0 375 374.999991" height="20" preserveAspectRatio="xMidYMid meet" version="1.0"><defs><g/><clipPath id="223969d652"><path d="M 129.125 60 L 246 60 L 246 231 L 129.125 231 Z M 129.125 60 " clip-rule="nonzero"/></clipPath></defs><g fill="#272626" fill-opacity="1"><g transform="translate(59.934726, 290.210408)"><g><path d="M 3.21875 -29.796875 L 13.625 -29.796875 C 17.925781 -29.796875 20.992188 -29.15625 22.828125 -27.875 C 24.660156 -26.601562 25.578125 -24.773438 25.578125 -22.390625 C 25.578125 -21.078125 25.34375 -19.960938 24.875 -19.046875 C 24.40625 -18.140625 23.8125 -17.421875 23.09375 -16.890625 C 22.382812 -16.367188 21.660156 -16.007812 20.921875 -15.8125 L 20.921875 -15.609375 C 21.734375 -15.410156 22.539062 -15.078125 23.34375 -14.609375 C 24.15625 -14.140625 24.828125 -13.4375 25.359375 -12.5 C 25.898438 -11.570312 26.171875 -10.3125 26.171875 -8.71875 C 26.171875 -6.914062 25.710938 -5.359375 24.796875 -4.046875 C 23.878906 -2.742188 22.570312 -1.742188 20.875 -1.046875 C 19.175781 -0.347656 17.160156 0 14.828125 0 L 3.21875 0 Z M 11.265625 -18.375 L 13.703125 -18.375 C 15.035156 -18.375 15.972656 -18.644531 16.515625 -19.1875 C 17.054688 -19.738281 17.328125 -20.410156 17.328125 -21.203125 C 17.328125 -22.015625 17.015625 -22.632812 16.390625 -23.0625 C 15.773438 -23.488281 14.820312 -23.703125 13.53125 -23.703125 L 11.265625 -23.703125 Z M 11.265625 -12.46875 L 11.265625 -6.21875 L 14.109375 -6.21875 C 15.503906 -6.21875 16.476562 -6.519531 17.03125 -7.125 C 17.59375 -7.726562 17.875 -8.484375 17.875 -9.390625 C 17.875 -9.921875 17.753906 -10.421875 17.515625 -10.890625 C 17.285156 -11.359375 16.882812 -11.738281 16.3125 -12.03125 C 15.738281 -12.320312 14.945312 -12.46875 13.9375 -12.46875 Z M 11.265625 -12.46875 "/></g></g></g><g fill="#272626" fill-opacity="1"><g transform="translate(92.827591, 290.210408)"><g><path d="M 12.984375 -29.796875 C 15.691406 -29.796875 17.941406 -29.46875 19.734375 -28.8125 C 21.523438 -28.15625 22.875 -27.171875 23.78125 -25.859375 C 24.6875 -24.554688 25.140625 -22.9375 25.140625 -21 C 25.140625 -19.789062 24.929688 -18.6875 24.515625 -17.6875 C 24.109375 -16.695312 23.53125 -15.8125 22.78125 -15.03125 C 22.03125 -14.25 21.128906 -13.566406 20.078125 -12.984375 L 28.765625 0 L 19.625 0 L 13.3125 -10.84375 L 11.265625 -10.84375 L 11.265625 0 L 3.21875 0 L 3.21875 -29.796875 Z M 12.859375 -23.703125 L 11.265625 -23.703125 L 11.265625 -16.90625 L 12.78125 -16.90625 C 14.019531 -16.90625 15.03125 -17.175781 15.8125 -17.71875 C 16.601562 -18.257812 17 -19.226562 17 -20.625 C 17 -21.59375 16.671875 -22.347656 16.015625 -22.890625 C 15.367188 -23.429688 14.316406 -23.703125 12.859375 -23.703125 Z M 12.859375 -23.703125 "/></g></g></g><g fill="#272626" fill-opacity="1"><g transform="translate(125.842766, 290.210408)"><g><path d="M 28.5625 -29.796875 L 28.5625 -11.859375 C 28.5625 -9.359375 28.082031 -7.1875 27.125 -5.34375 C 26.175781 -3.507812 24.75 -2.09375 22.84375 -1.09375 C 20.945312 -0.09375 18.566406 0.40625 15.703125 0.40625 C 11.597656 0.40625 8.460938 -0.644531 6.296875 -2.75 C 4.140625 -4.851562 3.0625 -7.832031 3.0625 -11.6875 L 3.0625 -29.796875 L 11.15625 -29.796875 L 11.15625 -12.3125 C 11.15625 -10.207031 11.546875 -8.675781 12.328125 -7.71875 C 13.117188 -6.769531 14.28125 -6.296875 15.8125 -6.296875 C 16.914062 -6.296875 17.8125 -6.503906 18.5 -6.921875 C 19.195312 -7.335938 19.707031 -7.992188 20.03125 -8.890625 C 20.351562 -9.785156 20.515625 -10.941406 20.515625 -12.359375 L 20.515625 -29.796875 Z M 28.5625 -29.796875 "/></g></g></g><g fill="#272626" fill-opacity="1"><g transform="translate(162.201087, 290.210408)"><g><path d="M 16.484375 -23.625 C 15.535156 -23.625 14.6875 -23.421875 13.9375 -23.015625 C 13.195312 -22.617188 12.5625 -22.039062 12.03125 -21.28125 C 11.5 -20.519531 11.09375 -19.59375 10.8125 -18.5 C 10.53125 -17.40625 10.390625 -16.164062 10.390625 -14.78125 C 10.390625 -12.90625 10.628906 -11.328125 11.109375 -10.046875 C 11.585938 -8.773438 12.3125 -7.8125 13.28125 -7.15625 C 14.25 -6.5 15.46875 -6.171875 16.9375 -6.171875 C 18.269531 -6.171875 19.550781 -6.351562 20.78125 -6.71875 C 22.007812 -7.09375 23.25 -7.535156 24.5 -8.046875 L 24.5 -1.25 C 23.1875 -0.65625 21.835938 -0.234375 20.453125 0.015625 C 19.078125 0.273438 17.613281 0.40625 16.0625 0.40625 C 12.832031 0.40625 10.1875 -0.234375 8.125 -1.515625 C 6.0625 -2.796875 4.546875 -4.578125 3.578125 -6.859375 C 2.609375 -9.148438 2.125 -11.804688 2.125 -14.828125 C 2.125 -17.078125 2.4375 -19.140625 3.0625 -21.015625 C 3.695312 -22.890625 4.625 -24.515625 5.84375 -25.890625 C 7.070312 -27.273438 8.585938 -28.34375 10.390625 -29.09375 C 12.191406 -29.851562 14.253906 -30.234375 16.578125 -30.234375 C 18.015625 -30.234375 19.53125 -30.066406 21.125 -29.734375 C 22.726562 -29.398438 24.289062 -28.863281 25.8125 -28.125 L 23.34375 -21.796875 C 22.25 -22.304688 21.144531 -22.738281 20.03125 -23.09375 C 18.925781 -23.445312 17.742188 -23.625 16.484375 -23.625 Z M 16.484375 -23.625 "/></g></g></g><g fill="#272626" fill-opacity="1"><g transform="translate(194.054322, 290.210408)"><g><path d="M 22.703125 -9.046875 C 22.703125 -7.429688 22.296875 -5.898438 21.484375 -4.453125 C 20.671875 -3.003906 19.40625 -1.832031 17.6875 -0.9375 C 15.96875 -0.0390625 13.75 0.40625 11.03125 0.40625 C 9.664062 0.40625 8.46875 0.34375 7.4375 0.21875 C 6.414062 0.101562 5.460938 -0.09375 4.578125 -0.375 C 3.703125 -0.65625 2.785156 -1.019531 1.828125 -1.46875 L 1.828125 -8.640625 C 3.453125 -7.828125 5.082031 -7.207031 6.71875 -6.78125 C 8.363281 -6.351562 9.851562 -6.140625 11.1875 -6.140625 C 11.988281 -6.140625 12.644531 -6.234375 13.15625 -6.421875 C 13.664062 -6.609375 14.039062 -6.867188 14.28125 -7.203125 C 14.53125 -7.535156 14.65625 -7.921875 14.65625 -8.359375 C 14.65625 -8.878906 14.472656 -9.316406 14.109375 -9.671875 C 13.753906 -10.035156 13.179688 -10.410156 12.390625 -10.796875 C 11.609375 -11.191406 10.570312 -11.679688 9.28125 -12.265625 C 8.175781 -12.785156 7.175781 -13.316406 6.28125 -13.859375 C 5.394531 -14.398438 4.632812 -15.019531 4 -15.71875 C 3.375 -16.425781 2.890625 -17.25 2.546875 -18.1875 C 2.203125 -19.125 2.03125 -20.226562 2.03125 -21.5 C 2.03125 -23.414062 2.503906 -25.023438 3.453125 -26.328125 C 4.398438 -27.628906 5.71875 -28.601562 7.40625 -29.25 C 9.101562 -29.90625 11.054688 -30.234375 13.265625 -30.234375 C 15.210938 -30.234375 16.960938 -30.015625 18.515625 -29.578125 C 20.078125 -29.140625 21.472656 -28.644531 22.703125 -28.09375 L 20.25 -21.875 C 18.96875 -22.457031 17.707031 -22.921875 16.46875 -23.265625 C 15.226562 -23.617188 14.082031 -23.796875 13.03125 -23.796875 C 12.332031 -23.796875 11.757812 -23.707031 11.3125 -23.53125 C 10.875 -23.363281 10.550781 -23.132812 10.34375 -22.84375 C 10.132812 -22.5625 10.03125 -22.238281 10.03125 -21.875 C 10.03125 -21.414062 10.207031 -21 10.5625 -20.625 C 10.925781 -20.257812 11.53125 -19.863281 12.375 -19.4375 C 13.226562 -19.007812 14.390625 -18.457031 15.859375 -17.78125 C 17.316406 -17.125 18.550781 -16.414062 19.5625 -15.65625 C 20.582031 -14.90625 21.359375 -14.003906 21.890625 -12.953125 C 22.429688 -11.898438 22.703125 -10.597656 22.703125 -9.046875 Z M 22.703125 -9.046875 "/></g></g></g><g fill="#272626" fill-opacity="1"><g transform="translate(222.91095, 290.210408)"><g><path d="M 31.109375 -14.9375 C 31.109375 -12.644531 30.832031 -10.554688 30.28125 -8.671875 C 29.726562 -6.785156 28.867188 -5.164062 27.703125 -3.8125 C 26.535156 -2.457031 25.035156 -1.414062 23.203125 -0.6875 C 21.367188 0.0390625 19.171875 0.40625 16.609375 0.40625 C 14.109375 0.40625 11.941406 0.0390625 10.109375 -0.6875 C 8.285156 -1.414062 6.78125 -2.453125 5.59375 -3.796875 C 4.414062 -5.148438 3.539062 -6.769531 2.96875 -8.65625 C 2.40625 -10.550781 2.125 -12.660156 2.125 -14.984375 C 2.125 -18.078125 2.632812 -20.769531 3.65625 -23.0625 C 4.6875 -25.351562 6.273438 -27.125 8.421875 -28.375 C 10.566406 -29.632812 13.3125 -30.265625 16.65625 -30.265625 C 20.050781 -30.265625 22.8125 -29.632812 24.9375 -28.375 C 27.0625 -27.113281 28.617188 -25.332031 29.609375 -23.03125 C 30.609375 -20.738281 31.109375 -18.039062 31.109375 -14.9375 Z M 10.59375 -14.9375 C 10.59375 -13.144531 10.796875 -11.601562 11.203125 -10.3125 C 11.617188 -9.019531 12.265625 -8.023438 13.140625 -7.328125 C 14.023438 -6.640625 15.179688 -6.296875 16.609375 -6.296875 C 18.097656 -6.296875 19.28125 -6.640625 20.15625 -7.328125 C 21.03125 -8.023438 21.660156 -9.019531 22.046875 -10.3125 C 22.429688 -11.601562 22.625 -13.144531 22.625 -14.9375 C 22.625 -17.632812 22.175781 -19.765625 21.28125 -21.328125 C 20.382812 -22.890625 18.84375 -23.671875 16.65625 -23.671875 C 15.195312 -23.671875 14.019531 -23.316406 13.125 -22.609375 C 12.238281 -21.898438 11.59375 -20.894531 11.1875 -19.59375 C 10.789062 -18.289062 10.59375 -16.738281 10.59375 -14.9375 Z M 10.59375 -14.9375 "/></g></g></g><g fill="#272626" fill-opacity="1"><g transform="translate(260.940843, 290.210408)"><g><path d="M 31.59375 0 L 21.03125 0 L 10.15625 -21 L 9.96875 -21 C 10.039062 -20.363281 10.101562 -19.59375 10.15625 -18.6875 C 10.207031 -17.789062 10.253906 -16.878906 10.296875 -15.953125 C 10.335938 -15.023438 10.359375 -14.1875 10.359375 -13.4375 L 10.359375 0 L 3.21875 0 L 3.21875 -29.796875 L 13.734375 -29.796875 L 24.578125 -9.09375 L 24.703125 -9.09375 C 24.660156 -9.75 24.617188 -10.503906 24.578125 -11.359375 C 24.546875 -12.222656 24.507812 -13.097656 24.46875 -13.984375 C 24.4375 -14.867188 24.421875 -15.648438 24.421875 -16.328125 L 24.421875 -29.796875 L 31.59375 -29.796875 Z M 31.59375 0 "/></g></g></g><g fill="#272626" fill-opacity="1"><g transform="translate(300.519999, 290.210408)"><g><path d="M 3.21875 0 L 3.21875 -29.796875 L 11.3125 -29.796875 L 11.3125 0 Z M 3.21875 0 "/></g></g></g><g fill="#272626" fill-opacity="1"><g transform="translate(115.574323, 312.185404)"><g><path d="M 7.515625 -3 C 7.515625 -2.457031 7.378906 -1.945312 7.109375 -1.46875 C 6.835938 -0.988281 6.414062 -0.597656 5.84375 -0.296875 C 5.28125 -0.00390625 4.550781 0.140625 3.65625 0.140625 C 3.195312 0.140625 2.796875 0.117188 2.453125 0.078125 C 2.117188 0.0351562 1.804688 -0.03125 1.515625 -0.125 C 1.222656 -0.21875 0.921875 -0.335938 0.609375 -0.484375 L 0.609375 -2.859375 C 1.140625 -2.585938 1.675781 -2.378906 2.21875 -2.234375 C 2.769531 -2.097656 3.265625 -2.03125 3.703125 -2.03125 C 3.960938 -2.03125 4.175781 -2.0625 4.34375 -2.125 C 4.519531 -2.1875 4.644531 -2.269531 4.71875 -2.375 C 4.800781 -2.488281 4.84375 -2.617188 4.84375 -2.765625 C 4.84375 -2.929688 4.78125 -3.070312 4.65625 -3.1875 C 4.539062 -3.3125 4.351562 -3.4375 4.09375 -3.5625 C 3.832031 -3.695312 3.488281 -3.863281 3.0625 -4.0625 C 2.695312 -4.226562 2.367188 -4.398438 2.078125 -4.578125 C 1.785156 -4.765625 1.535156 -4.972656 1.328125 -5.203125 C 1.117188 -5.429688 0.957031 -5.703125 0.84375 -6.015625 C 0.726562 -6.328125 0.671875 -6.691406 0.671875 -7.109375 C 0.671875 -7.742188 0.828125 -8.273438 1.140625 -8.703125 C 1.453125 -9.140625 1.890625 -9.460938 2.453125 -9.671875 C 3.015625 -9.890625 3.660156 -10 4.390625 -10 C 5.035156 -10 5.613281 -9.925781 6.125 -9.78125 C 6.644531 -9.632812 7.109375 -9.472656 7.515625 -9.296875 L 6.703125 -7.234375 C 6.273438 -7.429688 5.851562 -7.585938 5.4375 -7.703125 C 5.03125 -7.816406 4.65625 -7.875 4.3125 -7.875 C 4.082031 -7.875 3.894531 -7.84375 3.75 -7.78125 C 3.601562 -7.726562 3.492188 -7.65625 3.421875 -7.5625 C 3.347656 -7.46875 3.3125 -7.359375 3.3125 -7.234375 C 3.3125 -7.078125 3.367188 -6.9375 3.484375 -6.8125 C 3.609375 -6.695312 3.8125 -6.566406 4.09375 -6.421875 C 4.375 -6.285156 4.757812 -6.101562 5.25 -5.875 C 5.726562 -5.664062 6.132812 -5.4375 6.46875 -5.1875 C 6.8125 -4.9375 7.070312 -4.632812 7.25 -4.28125 C 7.425781 -3.9375 7.515625 -3.507812 7.515625 -3 Z M 7.515625 -3 "/></g></g></g><g fill="#272626" fill-opacity="1"><g transform="translate(133.251809, 312.185404)"><g><path d="M 10.296875 -4.9375 C 10.296875 -4.175781 10.203125 -3.484375 10.015625 -2.859375 C 9.835938 -2.242188 9.550781 -1.710938 9.15625 -1.265625 C 8.769531 -0.816406 8.273438 -0.46875 7.671875 -0.21875 C 7.066406 0.0195312 6.34375 0.140625 5.5 0.140625 C 4.664062 0.140625 3.945312 0.0195312 3.34375 -0.21875 C 2.738281 -0.46875 2.238281 -0.8125 1.84375 -1.25 C 1.457031 -1.695312 1.171875 -2.234375 0.984375 -2.859375 C 0.796875 -3.484375 0.703125 -4.179688 0.703125 -4.953125 C 0.703125 -5.984375 0.867188 -6.875 1.203125 -7.625 C 1.546875 -8.382812 2.070312 -8.972656 2.78125 -9.390625 C 3.488281 -9.804688 4.398438 -10.015625 5.515625 -10.015625 C 6.640625 -10.015625 7.550781 -9.804688 8.25 -9.390625 C 8.957031 -8.972656 9.472656 -8.382812 9.796875 -7.625 C 10.128906 -6.863281 10.296875 -5.96875 10.296875 -4.9375 Z M 3.5 -4.9375 C 3.5 -4.34375 3.566406 -3.832031 3.703125 -3.40625 C 3.835938 -2.976562 4.050781 -2.648438 4.34375 -2.421875 C 4.632812 -2.191406 5.019531 -2.078125 5.5 -2.078125 C 5.988281 -2.078125 6.378906 -2.191406 6.671875 -2.421875 C 6.960938 -2.648438 7.171875 -2.976562 7.296875 -3.40625 C 7.421875 -3.832031 7.484375 -4.34375 7.484375 -4.9375 C 7.484375 -5.832031 7.332031 -6.535156 7.03125 -7.046875 C 6.738281 -7.566406 6.234375 -7.828125 5.515625 -7.828125 C 5.023438 -7.828125 4.632812 -7.707031 4.34375 -7.46875 C 4.050781 -7.238281 3.835938 -6.90625 3.703125 -6.46875 C 3.566406 -6.039062 3.5 -5.53125 3.5 -4.9375 Z M 3.5 -4.9375 "/></g></g></g><g fill="#272626" fill-opacity="1"><g transform="translate(153.964813, 312.185404)"><g><path d="M 3.6875 0 L 1.0625 0 L 1.0625 -9.859375 L 6.890625 -9.859375 L 6.890625 -7.71875 L 3.6875 -7.71875 L 3.6875 -5.84375 L 6.640625 -5.84375 L 6.640625 -3.703125 L 3.6875 -3.703125 Z M 3.6875 0 "/></g></g></g><g fill="#272626" fill-opacity="1"><g transform="translate(171.116143, 312.185404)"><g><path d="M 5.421875 0 L 2.75 0 L 2.75 -7.6875 L 0.34375 -7.6875 L 0.34375 -9.859375 L 7.8125 -9.859375 L 7.8125 -7.6875 L 5.421875 -7.6875 Z M 5.421875 0 "/></g></g></g><g fill="#272626" fill-opacity="1"><g transform="translate(188.982506, 312.185404)"><g><path d="M 14.140625 -9.859375 L 11.71875 0 L 8.5625 0 L 7.625 -4.296875 C 7.601562 -4.378906 7.570312 -4.515625 7.53125 -4.703125 C 7.5 -4.898438 7.457031 -5.117188 7.40625 -5.359375 C 7.363281 -5.609375 7.320312 -5.851562 7.28125 -6.09375 C 7.238281 -6.34375 7.210938 -6.546875 7.203125 -6.703125 C 7.179688 -6.546875 7.148438 -6.34375 7.109375 -6.09375 C 7.066406 -5.851562 7.019531 -5.609375 6.96875 -5.359375 C 6.925781 -5.117188 6.882812 -4.898438 6.84375 -4.703125 C 6.800781 -4.515625 6.769531 -4.378906 6.75 -4.296875 L 5.796875 0 L 2.65625 0 L 0.203125 -9.859375 L 2.78125 -9.859375 L 3.84375 -4.921875 C 3.875 -4.796875 3.910156 -4.617188 3.953125 -4.390625 C 4.003906 -4.171875 4.054688 -3.929688 4.109375 -3.671875 C 4.160156 -3.410156 4.207031 -3.15625 4.25 -2.90625 C 4.300781 -2.664062 4.332031 -2.46875 4.34375 -2.3125 C 4.382812 -2.582031 4.4375 -2.894531 4.5 -3.25 C 4.5625 -3.613281 4.628906 -3.976562 4.703125 -4.34375 C 4.773438 -4.707031 4.84375 -5.046875 4.90625 -5.359375 C 4.976562 -5.671875 5.035156 -5.925781 5.078125 -6.125 L 5.953125 -9.859375 L 8.421875 -9.859375 L 9.265625 -6.125 C 9.304688 -5.9375 9.363281 -5.679688 9.4375 -5.359375 C 9.507812 -5.046875 9.582031 -4.703125 9.65625 -4.328125 C 9.726562 -3.960938 9.796875 -3.601562 9.859375 -3.25 C 9.921875 -2.894531 9.96875 -2.582031 10 -2.3125 C 10.03125 -2.53125 10.078125 -2.8125 10.140625 -3.15625 C 10.203125 -3.5 10.265625 -3.832031 10.328125 -4.15625 C 10.390625 -4.488281 10.441406 -4.738281 10.484375 -4.90625 L 11.578125 -9.859375 Z M 14.140625 -9.859375 "/></g></g></g><g fill="#272626" fill-opacity="1"><g transform="translate(213.041328, 312.185404)"><g><path d="M 7.109375 0 L 6.625 -1.84375 L 3.421875 -1.84375 L 2.921875 0 L 0 0 L 3.21875 -9.90625 L 6.765625 -9.90625 L 10.03125 0 Z M 6.078125 -4.03125 L 5.65625 -5.65625 C 5.601562 -5.832031 5.535156 -6.082031 5.453125 -6.40625 C 5.367188 -6.726562 5.285156 -7.0625 5.203125 -7.40625 C 5.117188 -7.757812 5.054688 -8.050781 5.015625 -8.28125 C 4.972656 -8.050781 4.914062 -7.769531 4.84375 -7.4375 C 4.769531 -7.113281 4.691406 -6.785156 4.609375 -6.453125 C 4.523438 -6.128906 4.457031 -5.863281 4.40625 -5.65625 L 3.984375 -4.03125 Z M 6.078125 -4.03125 "/></g></g></g><g fill="#272626" fill-opacity="1"><g transform="translate(232.776234, 312.185404)"><g><path d="M 4.296875 -9.859375 C 5.191406 -9.859375 5.9375 -9.75 6.53125 -9.53125 C 7.125 -9.3125 7.566406 -8.984375 7.859375 -8.546875 C 8.160156 -8.117188 8.3125 -7.585938 8.3125 -6.953125 C 8.3125 -6.546875 8.242188 -6.175781 8.109375 -5.84375 C 7.972656 -5.519531 7.78125 -5.226562 7.53125 -4.96875 C 7.28125 -4.71875 6.984375 -4.492188 6.640625 -4.296875 L 9.515625 0 L 6.5 0 L 4.40625 -3.59375 L 3.734375 -3.59375 L 3.734375 0 L 1.0625 0 L 1.0625 -9.859375 Z M 4.25 -7.84375 L 3.734375 -7.84375 L 3.734375 -5.59375 L 4.234375 -5.59375 C 4.640625 -5.59375 4.972656 -5.679688 5.234375 -5.859375 C 5.492188 -6.035156 5.625 -6.359375 5.625 -6.828125 C 5.625 -7.140625 5.515625 -7.382812 5.296875 -7.5625 C 5.085938 -7.75 4.738281 -7.84375 4.25 -7.84375 Z M 4.25 -7.84375 "/></g></g></g><g fill="#272626" fill-opacity="1"><g transform="translate(251.829825, 312.185404)"><g><path d="M 6.921875 0 L 1.0625 0 L 1.0625 -9.859375 L 6.921875 -9.859375 L 6.921875 -7.71875 L 3.734375 -7.71875 L 3.734375 -6.171875 L 6.6875 -6.171875 L 6.6875 -4.03125 L 3.734375 -4.03125 L 3.734375 -2.171875 L 6.921875 -2.171875 Z M 6.921875 0 "/></g></g></g><g clip-path="url(#223969d652)"><path fill="#272626" d="M 204.140625 120.929688 C 198.34375 119.277344 192.578125 123.652344 192.578125 129.683594 L 192.578125 222.503906 C 192.578125 227.683594 197.402344 231.5625 202.449219 230.371094 C 227.328125 224.507812 245.90625 202.121094 245.90625 175.472656 C 245.90625 149.671875 228.503906 127.871094 204.140625 120.929688 Z M 182.402344 116.007812 L 182.402344 222.503906 C 182.402344 227.683594 177.582031 231.5625 172.535156 230.371094 C 147.652344 224.511719 129.074219 202.121094 129.074219 175.472656 L 129.074219 66.996094 C 129.074219 62.925781 132.789062 59.863281 136.785156 60.640625 C 162.746094 65.683594 182.402344 88.59375 182.402344 116.007812 Z M 182.402344 116.007812 " fill-opacity="1" fill-rule="nonzero"/></g></svg>