<svg id="Capa_3" data-name="Capa 3" xmlns="http://www.w3.org/2000/svg" viewBox="0 0 1173.01 1156.06"><defs><style>.cls-1,.cls-2{fill:#ff0000;}.cls-2{stroke:#ff0000;stroke-miterlimit:10;stroke-width:14px;}</style></defs><title>ISOLOGO</title><path class="cls-1" d="M1226.06,553.73a27.63,27.63,0,0,0-21.37-22.47L956.32,474.44l75-243.5a28,28,0,0,0-39.59-33.23L764.92,313.84,665.85,79.11a28.06,28.06,0,0,0-51.7,0L515.08,313.84,288.29,197.71a28.05,28.05,0,0,0-39.59,33.23l75,243.5L75.31,531.26a28.05,28.05,0,0,0-9,50.9l214,138.33L126.55,923.67a28.05,28.05,0,0,0,25.85,44.76l252.82-31.56L418,1191.33a27.64,27.64,0,0,0,18.42,25,28.55,28.55,0,0,0,9.79,1.75,27.64,27.64,0,0,0,20.36-9L640,1022.32,813.39,1209A28.05,28.05,0,0,0,862,1191.33l12.82-254.46,252.82,31.56a28,28,0,0,0,25.85-44.76L999.7,720.5l214-138.34A27.66,27.66,0,0,0,1226.06,553.73Zm-967,302.18,117.3-155a2.18,2.18,0,0,0-.56-3.15L212.6,592.21a15.79,15.79,0,0,1,5.05-28.65l189.5-43.35a2.18,2.18,0,0,0,1.6-2.77L351.54,331.66A15.79,15.79,0,0,1,373.83,313l173,88.6a2.19,2.19,0,0,0,3-1.1l75.59-179.09a15.8,15.8,0,0,1,29.1,0l75.59,179.09a2.19,2.19,0,0,0,3,1.1l173-88.6a15.79,15.79,0,0,1,22.29,18.7L871.25,517.44a2.18,2.18,0,0,0,1.6,2.77l189.5,43.35a15.79,15.79,0,0,1,5.05,28.65L904.16,697.75a2.18,2.18,0,0,0-.56,3.15l117.3,155a15.79,15.79,0,0,1-14.55,25.2L813.46,857a2.18,2.18,0,0,0-2.45,2.06l-9.78,194.14a15.79,15.79,0,0,1-27.34,10L641.6,920.75a2.18,2.18,0,0,0-3.2,0L506.11,1063.18a15.79,15.79,0,0,1-27.34-10L469,859.09a2.18,2.18,0,0,0-2.45-2.06L273.65,881.11A15.79,15.79,0,0,1,259.1,855.91Z" transform="translate(-53.49 -61.97)"/><path class="cls-2" d="M787,485.7V716.91q0,39.6-17.72,69.41T718.12,832q-33.5,15.88-79.19,15.89-68.92,0-107-35.32t-38.13-96.67V485.7h75.52V704.45q0,41.31,16.62,60.61t55,19.31q37.15,0,53.9-19.43t16.74-61V485.7Z" transform="translate(-53.49 -61.97)"/></svg>